HIERARCHY
ROOT hip
{
  OFFSET 0.0 0.0 0.0
  CHANNELS 6 Xposition Yposition Zposition Zrotation Yrotation Xrotation
  JOINT torso
  {
    OFFSET 0.0 0.0 0.0
    CHANNELS 3 Zrotation Xrotation Yrotation
    JOINT neck
    {
      OFFSET -31.42098999999993 328.8025209999999 74.3554680000002
      CHANNELS 3 Zrotation Xrotation Yrotation
      JOINT head
      {
        OFFSET 3.3519900000001144 303.81732099999994 206.53942900000015
        CHANNELS 3 Zrotation Xrotation Yrotation
        End Site
        {
          OFFSET 0.0 0.0 0.0
        }
      }
    }
    JOINT left_collar
    {
      OFFSET -31.42098999999993 328.8025209999999 74.3554680000002
      CHANNELS 3 Zrotation Xrotation Yrotation
      JOINT left_upper_arm
      {
        OFFSET -124.490479 -8.162841999999841 8.226441000000023
        CHANNELS 3 Zrotation Xrotation Yrotation
        JOINT left_forearm
        {
          OFFSET -253.595764 -1.5758060000000569 105.0729980000001
          CHANNELS 3 Zrotation Xrotation Yrotation
          JOINT left_hand
          {
            OFFSET -269.48803699999996 0.1478270000000066 -55.346191999999974
            CHANNELS 3 Zrotation Xrotation Yrotation
            End Site
            {
              OFFSET 0.0 0.0 0.0
            }
          }
        }
      }
    }
    JOINT right_collar
    {
      OFFSET -31.42098999999993 328.8025209999999 74.3554680000002
      CHANNELS 3 Zrotation Xrotation Yrotation
      JOINT right_upper_arm
      {
        OFFSET 162.02484099999998 0.46441600000002836 2.2303470000001653
        CHANNELS 3 Zrotation Xrotation Yrotation
        JOINT right_forearm
        {
          OFFSET 240.01246700000004 -25.835875999999985 121.34179699999959
          CHANNELS 3 Zrotation Xrotation Yrotation
          JOINT right_hand
          {
            OFFSET 252.48539699999992 18.910399999999868 -67.53466800000001
            CHANNELS 3 Zrotation Xrotation Yrotation
            End Site
            {
              OFFSET 0.0 0.0 0.0
            }
          }
        }
      }
    }
  }
}
MOTION
Frames: 14
Frame Time: 0.01
-267.7116818395954 263.4963495476835 1553.9155513100159 1.9548226449839685 -8.230408374831303 8.348548779555939 2.620616089931339 3.241263122127431 -0.21055552968195063 -0.704975387131567 -4.720179474623381 0.545178822110444 0.0 0.0 0.0 -0.5475224789539218 0.6388214354031583 -11.006019186595216 54.01091993136989 17.52676211520829 11.328042235387349 30.93574095781933 -1.6473097777072534 -17.296031588451175 0.0 0.0 0.0 -6.111455661453525 -0.30439601673592337 -7.687501845083844 -47.6007832994714 14.623202904411686 -18.65296987103248 -51.06793350166127 2.5505002048569434 41.62103614384367 0.0 0.0 0.0
-267.6933718367309 263.36420376037853 1554.075966769312 1.9486492213691875 -8.27219683553893 8.362098898926027 2.616101388970948 3.2357775301690603 -0.21030662453534035 -0.6975032797151953 -4.664746766040021 0.5391853039837652 0.0 0.0 0.0 -0.5563976227800789 0.6370943572251402 -11.001609009413052 54.02250709564908 17.54972304520773 11.294259209213442 30.91260649641128 -1.6392834209255367 -17.320398589566363 0.0 0.0 0.0 -6.102709501070457 -0.30406855727766785 -7.690280378314021 -48.287323028211816 14.764896198908067 -18.876936873135826 -50.33818449809387 2.3238810565661248 41.264837466517584 0.0 0.0 0.0
-267.6754182902946 263.2299756339955 1554.2398814068156 1.942411944311771 -8.31526433311615 8.375926057188055 2.611330195294893 3.230690720694616 -0.20995853357547473 -0.6895611323916208 -4.608102755477657 0.5328491337642421 0.0 0.0 0.0 -0.564707220067396 0.6354914637658571 -10.997697428595131 54.03376492363827 17.57355910940947 11.258685643219309 30.887602771575832 -1.6315575507902915 -17.34334487060907 0.0 0.0 0.0 -6.094471706592726 -0.3037549316751789 -7.692802108109385 -48.97094816483912 14.904040517669202 -19.10011819460964 -49.59828866915311 2.1052154466074264 40.917261488218244 0.0 0.0 0.0
-267.657740976844 263.0925980723306 1554.4094856276035 1.9359313446325255 -8.3602084554116 8.390336745816775 2.606341720810423 3.226038939091362 -0.20951480444424503 -0.6810725558224231 -4.549741093603003 0.5261103999747392 0.0 0.0 0.0 -0.5724220331388893 0.6340255101983344 -10.99441607506321 54.04455701560203 17.59867958364483 11.22048768875345 30.860438097333283 -1.624129196506568 -17.364823959890128 0.0 0.0 0.0 -6.086957528298638 -0.30346379762217235 -7.695008295683494 -49.643858315124135 15.039316799950823 -19.319626934832765 -48.856353693445314 1.896851659748806 40.582580643754454 0.0 0.0 0.0
-267.64024234882095 262.95090553626795 1554.587165793541 1.9290186603817874 -8.40767885685623 8.405664968906791 2.6011693560285547 3.2218627614683895 -0.20897732247020365 -0.6719594972721705 -4.489133727241456 0.5189078941753767 0.0 0.0 0.0 -0.5795271151232501 0.632707703735664 -10.99190971927881 54.05474545633122 17.625497875103683 11.178823686586673 30.83084626721875 -1.6169769811749652 -17.384861284992265 0.0 0.0 0.0 -6.080358313740359 -0.3032029229738739 -7.696847535895509 -50.298393296918725 15.169561574172373 -19.53256337086265 -48.12082113549853 1.7007595078330158 40.26464313500065 0.0 0.0 0.0
-267.62280957973474 262.8036732576748 1554.775438944984 1.9214812146832998 -8.458358009471594 8.422263895775835 2.5958391059801125 3.218206257036001 -0.2083460965679183 -0.6621457360163808 -4.425752043607136 0.5111818676662571 0.0 0.0 0.0 -0.5860224694193569 0.6315473939362222 -10.99033289833077 54.064191990696344 17.654416298241873 11.132872486918874 30.798601892831844 -1.6100596481773688 -17.403562696940433 0.0 0.0 0.0 -6.07483333573946 -0.3029788105475301 -7.698277281896009 -50.92723103847493 15.293789786903334 -19.736095756667506 -47.400211830543256 1.5185043163038427 39.96679132716388 0.0 0.0 0.0
-267.60531616952676 262.64965786979536 1554.97688351136 1.9131276534978898 -8.51294054215888 8.440497284027725 2.590368639220459 3.2151156781776526 -0.20761922368106536 -0.6515606112473771 -4.35908825351245 0.5028769476192047 0.0 0.0 0.0 -0.5919236332636059 0.630551734537325 -10.989845865487998 54.072759000378674 17.685810976240564 11.081861330856169 30.763535702818277 -1.6033147992681644 -17.4211223374603 0.0 0.0 0.0 -6.070502822840387 -0.3027963729419761 -7.6992650875321855 -51.523583611466215 15.411208514343592 -19.927544451509558 -46.7028464878041 1.3512426434046276 39.69180755083987 0.0 0.0 0.0
-267.58762295985053 262.4876379475993 1555.19406828462 1.9037728420538802 -8.57211182645313 8.460730935701724 2.5847670249000747 3.2126376913625894 -0.2067930453242845 -0.6401428747944966 -4.288676207704451 0.4939451235929475 0.0 0.0 0.0 -0.5972621542575207 0.6297253229112013 -10.990609894625319 54.08031029257455 17.720017433152996 11.025092278287609 30.725549140659496 -1.5966578899097879 -17.437829592092232 0.0 0.0 0.0 -6.067442492404865 -0.30265867109745287 -7.699789483577108 -52.081381403425524 15.521221324981578 -20.104464675076446 -46.036558622993034 1.199737823915927 39.44188930800636 0.0 0.0 0.0
-267.5695784577534 262.3164530206081 1555.429481940019 1.8932422543537644 -8.63652646247844 8.483324373407108 2.579035180665858 3.210817172400239 -0.20586249806483498 -0.6278445699797723 -4.214110870975304 0.48434872179669225 0.0 0.0 0.0 -0.6020858999002973 0.6290698253715292 -10.992781932884974 54.086711738087345 17.75731742930046 10.961966211430104 30.68462754956955 -1.5899815295644069 -17.45407483929445 0.0 0.0 0.0 -6.065679799150764 -0.3025667240934504 -7.699840377678612 -52.59543422194275 15.623423647732332 -20.26472252889851 -45.4084202099982 1.064392104315614 39.2186537233773 0.0 0.0 0.0
-267.55101843215664 262.1350397338007 1555.6854653607165 1.8813757375525721 -8.70678730438562 8.508622853800016 2.573166991685385 3.209694603958724 -0.20482164549309873 -0.6146348379959523 -4.1350657349000075 0.47406328520466007 0.0 0.0 0.0 -0.606459101506176 0.6285836019187843 -10.99650857981569 54.09183180636586 17.797927559768283 10.892003513328396 30.640851214106345 -1.5831551350664508 -17.470353676517217 0.0 0.0 0.0 -6.065192031572516 -0.30251939217383494 -7.699418853164656 -53.06155895861141 15.717590217741003 -20.40655912522562 -44.82450055019764 0.9452909789419014 39.023168341636236 0.0 0.0 0.0
-267.5317648283196 261.9424639969877 1555.964148933553 1.868030590654114 -8.783425632137247 8.536949797140553 2.5671509944985025 3.2093031239614405 -0.20366436452289707 -0.6005035389637433 -4.051307534915157 0.463080269110519 0.0 0.0 0.0 -0.6104619867803835 0.6282613538882008 -11.001919404108023 54.09554202989734 17.84199007873643 10.814860617903165 30.59440354626246 -1.5760249842657306 -17.487269279246238 0.0 0.0 0.0 -6.065906326408498 -0.3025133319021219 -7.6985362596192255 -53.476666289714025 15.803656392080653 -20.5286387205577 -44.28967551415748 0.8422545846311197 38.856002608474896 0.0 0.0 0.0
-267.51162413565186 261.73794819469947 1556.2673967854237 1.8530839597889626 -8.866883017314048 8.568599715893253 2.5609724595220547 3.2096652780607333 -0.20238514620261888 -0.5854645496874701 -3.962707758233218 0.45140944652522397 0.0 0.0 0.0 -0.614189816620934 0.6280938300623214 -11.009119696758972 54.097717397001354 17.889566326955723 10.730341764224653 30.545575766445765 -1.5684147158343051 -17.505532528680195 0.0 0.0 0.0 -6.067701623111666 -0.30254302210517164 -7.697212549329743 -53.83880276954314 15.8816956241605 -20.630078306900018 -43.80749863839485 0.7548909311589986 38.71729240342848 0.0 0.0 0.0
-267.49038543182576 261.52089282287625 1556.5967596006428 1.8364346096783186 -8.957495354281384 8.603831760291651 2.554615665712316 3.2107895410302327 -0.20097996164222742 -0.5695585759495988 -3.869250585020083 0.4390809043042781 0.0 0.0 0.0 -0.6177511417570966 0.628067634894605 -11.018182880767913 54.09823664742889 17.94063302824423 10.638405476292705 30.494767544942704 -1.560126320145163 -17.52595953121293 0.0 0.0 0.0 -6.070412526876887 -0.3026008604505669 -7.695473908226452 -54.14714845752176 15.95189550159598 -20.710457746583852 -43.38013917330374 0.6826463945267789 38.6068093622538 0.0 0.0 0.0
-267.467818394391 261.2908922330398 1556.9534372448998 1.8180041712888344 -9.055479464741397 8.642864042934828 2.5480661481489 3.2126667120112082 -0.19944713627611524 -0.5528553043920168 -3.7710370785340763 0.4261465060531879 0.0 0.0 0.0 -0.6212651574838254 0.6281651809713682 -11.029142925082207 54.09698245766825 17.995081592439593 10.539165533586694 30.44248323669414 -1.5509416643275817 -17.54946615759319 0.0 0.0 0.0 -6.073834973193612 -0.3026773312252358 -7.693349835298972 -54.40197328344789 16.014534486859258 -20.76981098325951 -43.008386263990786 0.6248500763048187 38.52402746444144 0.0 0.0 0.0
